<?xml version="1.0" standalone="no"?>
<!DOCTYPE svg PUBLIC "-//W3C//DTD SVG 1.1//EN" "http://www.w3.org/Graphics/SVG/1.1/DTD/svg11.dtd" >
<svg xmlns="http://www.w3.org/2000/svg">
<metadata>Generated by IcoMoon</metadata>
<defs>
<font id="customicon" horiz-adv-x="1024">
<font-face units-per-em="1024" ascent="960" descent="-64" />
<missing-glyph horiz-adv-x="1024" />
<glyph unicode="&#x20;" horiz-adv-x="512" d="" />
<glyph unicode="&#xe901;" glyph-name="adobe-aftereffects" d="M0 960v-1024h1024v1024h-1024zM964-4h-904v904h904v-904zM375.080 521.44l-48.96-133.92h96zM674.602 465.28c-33.852 0-61.852-25.53-64.8-62.4h130.56c-3.862 40.12-32.862 62.4-65.76 62.4zM120 840v-784h784v784h-784zM465.8 256l-31.68 84.96h-119.040l-31.2-84.96h-68.16l130.080 340.8h58.56l129.6-340.8h-68.16zM805.162 361.12h-194.4c0.96-9.922 11.572-62.88 66.72-62.88 35.684 0 55.358 23.834 59.52 34.080l55.2-15.36c-9.286-19.2-40.702-65.76-117.12-65.76-80.332 0-132.48 59.55-132.48 129.12 0 62.43 43.398 131.52 132.96 131.52 63.938 0 131.040-42.34 131.040-129.12 0-4.162-0.802-19.042-1.44-21.6z" />
<glyph unicode="&#xe902;" glyph-name="adobe-animate" d="M0 960v-1024h1024v1024h-1024zM964-4h-904v904h904v-904zM120 840v-784h784v784h-784zM461.244 256l-31.68 84.96h-119.040l-31.2-84.96h-68.16l130.080 340.8h58.56l129.6-340.8h-68.16zM730.042 256v141.12c0 40.214-15.708 58.080-39.84 58.080-43.536 0-63.044-44.64-65.28-52.32v-146.88h-64.32v251.52h58.080v-46.56c9.278 15.998 36.984 50.88 99.84 50.88 61.144 0 75.84-48.506 75.84-98.88v-156.96h-64.32zM370.524 521.44l-48.96-133.92h96z" />
<glyph unicode="&#xe903;" glyph-name="adobe-audition" d="M0 960v-1024h1024v1024h-1024zM964-4h-904v904h904v-904zM120 840v-784h784v784h-784zM460.76 256l-31.68 84.96h-119.040l-31.2-84.96h-68.16l130.080 340.8h58.56l129.6-340.8h-68.16zM786.442 253.6c-4.32-0.314-8.244-0.48-11.76-0.48-31.378 0-39.526 20.474-40.8 29.76l-1.44 20.16c-11.206-17.28-41.638-51.84-101.28-51.84-51.36 0-79.202 33.8-79.202 98.88v157.44h64.32v-143.52c0-38.722 13.92-58.080 41.76-58.080 37.262 0 57.434 30.24 64.8 45.6v156h64.32v-177.6c0-6.72 0.64-18.42 15.36-19.2v-54.72h0.002c-6.406-1.274-11.762-2.078-16.080-2.4zM370.040 521.44l-48.96-133.92h96z" />
<glyph unicode="&#xe904;" glyph-name="adobe-characteranimator" d="M0 960v-1024h1024v1024h-1024zM964-4h-904v904h904v-904zM120 840v-784h784v784h-784zM385.406 253.12c-92.406 0-165.122 84.546-165.122 175.68 0 100.866 77.714 169.92 168 169.92 83.048 0 121.276-52.32 132.48-74.4l-50.878-35.040c-4.486 9.6-24.886 50.88-83.522 50.88-47.366 0-98.88-38.826-98.88-113.28 0-62.546 41.516-115.2 99.84-115.2 58.676 0 80.16 42.556 84 51.84l54.242-31.2c-5.444-12.802-42.9-79.2-140.16-79.2zM797.718 256h-64.32v141.12c0 38.88-15.064 58.080-42.238 58.080-39.494 0-60.644-44.64-62.88-52.32v-146.88h-64.32v350.4h64.318v-145.44c9.28 16.32 35.72 50.88 90.24 50.88 42.146 0 79.2-20.506 79.2-98.88v-156.96z" />
<glyph unicode="&#xe905;" glyph-name="adobe-dreamweaver" d="M0 960v-1024h1024v1024h-1024zM964-4h-904v904h904v-904zM120 840v-784h784v784h-784zM296.644 256h-123.842v340.8h123.842c99.856 0 168-66.3 168-169.92 0-82.88-49.144-170.88-168-170.88zM778.078 256h-52.8l-43.2 110.4-42.72-110.4h-52.8l-104.638 251.52h60.48l74.878-191.040 30.718 81.6-44.16 108.96h51.84l26.402-77.28 26.878 77.28h51.84l-43.68-108.96 30.24-81.6 74.88 191.040h60.958l-105.116-251.52zM296.644 538.72h-57.602v-224.64h57.602c60.856 0 101.278 48.42 101.278 112.8 0 68.62-40.922 111.84-101.278 111.84z" />
<glyph unicode="&#xe906;" glyph-name="adobe-experience" d="M0 960v-1024h1024v1024h-1024zM964-4h-904v904h904v-904zM120 840v-784h784v784h-784zM458.524 256l-80.64 121.92-81.12-121.92h-72l117.6 168-121.442 172.8h72l84.96-126.72 84.48 126.72h71.52l-121.44-172.8 117.6-168h-71.518zM781.080 252.64c-46.442 0-42.238 47.040-42.238 47.040-9.286-16.004-36.954-48.48-87.36-48.48-73.844 0-119.522 61.55-119.522 130.56 0 78.24 52.678 130.080 112.32 130.080 50.524 0 76.634-34.080 84.958-48.48v143.040h64.32v-276.48c0-6.72 9.436-18.884 14.88-19.2v-54.72h0.004c-11.206-2.236-20.326-3.36-27.362-3.36zM664.442 457.12c-43.802 0-65.76-43.454-65.76-76.8 0-36.654 26.958-74.4 69.6-74.4 40.358 0 58.716 36.158 60.958 42.24v60c-2.564 7.036-25.602 48.96-64.798 48.96z" />
<glyph unicode="&#xe907;" glyph-name="adobe-illustrator" d="M0 960v-1024h1024v1024h-1024zM964-4h-904v904h904v-904zM444.284 521.44l-48.96-133.92h96zM120 840v-784h784v784h-784zM535.004 256l-31.68 84.96h-119.040l-31.2-84.96h-68.16l130.080 340.8h58.56l129.6-340.8h-68.16zM698.682 256h-64.318v251.52h64.318v-251.52zM698.682 542.56h-64.318v63.84h64.318v-63.84z" />
<glyph unicode="&#xe908;" glyph-name="adobe-indesign" d="M0 960v-1024h1024v1024h-1024zM964-4h-904v904h904v-904zM573.802 457.12c-43.802 0-65.76-43.454-65.76-76.8 0-36.654 26.958-74.4 69.6-74.4 40.358 0 58.716 36.158 60.958 42.24v60c-2.562 7.036-25.6 48.96-64.798 48.96zM120 840v-784h784v784h-784zM394.762 256h-66.238v340.8h66.238v-340.8zM690.44 252.64c-46.442 0-42.238 47.040-42.238 47.040-9.286-16.004-36.954-48.48-87.36-48.48-73.844 0-119.522 61.55-119.522 130.56 0 78.24 52.678 130.080 112.32 130.080 50.524 0 76.634-34.080 84.958-48.48v143.040h64.32v-276.48c0-6.72 9.436-18.884 14.88-19.2v-54.72h0.004c-11.206-2.236-20.326-3.36-27.362-3.36z" />
<glyph unicode="&#xe909;" glyph-name="adobe-lightroom" d="M0 960v-1024h1024v1024h-1024zM964-4h-904v904h904v-904zM120 840v-784h784v784h-784zM563.238 256h-240v340.8h66.24v-282.72h173.76v-58.080zM661.64 408.16v-152.16h-64.32v251.52h59.040v-53.76c4.478 8.64 32.64 62.74 90.72 56.64v-58.56c-56.58 0-78.72-29.28-85.44-43.68z" />
<glyph unicode="&#xe90a;" glyph-name="adobe-muse" d="M0 960v-1024h1024v1024h-1024zM964-4h-904v904h904v-904zM120 840v-784h784v784h-784zM538.762 256h-66.238v225.6l-87.84-168h-36l-87.84 168v-225.6h-66.242v340.8h71.042l100.8-193.92 101.76 193.92h70.558v-340.8zM835.638 253.6c-4.32-0.314-8.244-0.48-11.76-0.48-31.378 0-39.526 20.474-40.8 29.76l-1.44 20.16c-11.206-17.28-41.638-51.84-101.28-51.84-51.36 0-79.202 33.8-79.202 98.88v157.44h64.32v-143.52c0-38.722 13.92-58.080 41.76-58.080 37.262 0 57.434 30.24 64.8 45.6v156h64.32v-177.6c0-6.72 0.64-18.42 15.36-19.2v-54.72h0.002c-6.406-1.274-11.762-2.078-16.080-2.4z" />
<glyph unicode="&#xe90b;" glyph-name="adobe-photoshop" d="M0 960v-1024h1024v1024h-1024zM964-4h-904v904h904v-904zM421.884 538.72h-73.92v-110.4h76.8c23.236 0 42.72 21.68 42.72 55.2 0.002 28.8-17.484 55.2-45.6 55.2zM120 840v-784h784v784h-784zM428.606 370.24h-80.64v-114.24h-66.24v340.8h144.48c66.128 0 108.48-60.8 108.48-113.28 0-61.854-47.020-113.28-106.080-113.28zM669.558 251.2c-58.058 0-99.36 26.4-113.76 38.88l24 40.32c15.36-10.882 50.702-33.12 88.32-33.12 24.382 0 41.28 10.22 41.28 27.84 0 21.63-35.686 28.634-55.2 34.080-16.32 4.478-89.76 14.8-89.76 70.080 0 53.22 46.312 83.040 98.88 83.040 55.182 0 84.638-22.402 98.4-34.56l-25.92-38.88c-12.802 9.6-41.298 27.84-72.96 27.84-23.338 0-38.4-9.97-38.4-28.32 0-22.9 40.156-29.444 49.44-31.68 17.28-4.484 97.44-16.72 97.44-75.84 0-69.88-70.402-79.68-101.76-79.68z" />
<glyph unicode="&#xe90c;" glyph-name="adobe-premiere" d="M120 840v-784h784v784h-784zM460.762 370.24h-80.64v-114.24h-66.24v340.8h144.48c66.128 0 108.48-60.8 108.48-113.28 0-61.854-47.020-113.28-106.080-113.28zM670.994 408.16v-152.16h-64.32v251.52h59.040v-53.76c4.478 8.64 32.64 62.74 90.72 56.64v-58.56c-56.58 0-78.72-29.28-85.44-43.68zM454.042 538.72h-73.92v-110.4h76.8c23.236 0 42.72 21.68 42.72 55.2 0 28.8-17.486 55.2-45.6 55.2zM0 960v-1024h1024v1024h-1024zM964-4h-904v904h904v-904z" />
<glyph unicode="&#xe90d;" glyph-name="adobe-scout" d="M0 960v-1024h1024v1024h-1024zM964-4h-904v904h904v-904zM120 840v-784h784v784h-784zM386.124 252.16c-74.574 0-123.202 30.076-143.040 44.16l29.28 57.12c2.88-2.878 51.686-41.76 114.72-41.76 36.48 0 54.72 11.678 54.72 35.040 0 29.28-40.948 39.576-51.84 42.72-66.916 19.31-132.96 30.56-132.96 102.72 0 70.84 55.544 107.040 124.32 107.040 59.976 0 103.996-27.682 119.040-37.92l-29.28-53.76c-2.242 2.236-39.784 33.6-91.68 33.6-33.854 0-54.24-12.37-54.24-38.4 0-35.22 65.012-45.078 77.76-48.48 34.626-9.24 109.44-24.24 109.44-100.8 0-79.44-66.316-101.28-126.24-101.28zM673.162 251.2c-80.004 0-132.96 59.3-132.96 130.56 0 78.24 60.458 130.080 132.48 130.080 73.476 0 104.16-45.12 113.758-64.32l-62.878-19.2c-5.446 9.278-20.692 28.8-51.36 28.8-37.042 0-65.762-30.72-65.762-75.36 0-37.26 25.218-75.84 65.762-75.84 32.958 0 48.48 21.436 52.32 29.76l62.878-19.2c-8.642-19.2-39.242-65.28-114.238-65.28z" />
<glyph unicode="&#xe90e;" glyph-name="adobe-spark" d="M0 960v-1024h1024v1024h-1024zM964-4h-904v904h904v-904zM664.52 457.12c-39.020 0-58.724-36.166-60.96-42.24v-59.040c5.76-14.4 26.44-49.92 64.8-49.92 37.638 0 65.76 35.080 65.76 76.32 0.002 46.76-35.12 74.88-69.6 74.88zM120 840v-784h784v784h-784zM369.324 252.16c-74.574 0-123.202 30.076-143.040 44.16l29.28 57.12c2.88-2.878 51.686-41.76 114.72-41.76 36.48 0 54.72 11.678 54.72 35.040 0 29.28-40.948 39.576-51.84 42.72-66.916 19.31-132.96 30.56-132.96 102.72 0 70.84 55.544 107.040 124.32 107.040 59.976 0 103.996-27.682 119.040-37.92l-29.28-53.76c-2.242 2.236-39.784 33.6-91.68 33.6-33.854 0-54.24-12.37-54.24-38.4 0-35.22 65.012-45.078 77.76-48.48 34.626-9.24 109.44-24.24 109.44-100.8 0-79.44-66.314-101.28-126.24-101.28zM689.96 251.2c-53.294 0-78.082 33.916-86.4 48.96v-146.4h-64.32v353.76h56.16v-43.2c9.278 14.714 35.932 47.52 86.88 47.52 64.718 0 117.6-56.172 117.6-129.6 0-82.906-54.546-131.040-109.92-131.040z" />
<glyph unicode="&#xe90f;" glyph-name="adobe-stock" d="M0 960v-1024h1024v1024h-1024zM964-4h-904v904h904v-904zM120 840v-784h784v784h-784zM419.764 252.16c-74.574 0-123.202 30.076-143.040 44.16l29.28 57.12c2.88-2.878 51.686-41.76 114.72-41.76 36.48 0 54.72 11.678 54.72 35.040 0 29.28-40.948 39.576-51.84 42.72-66.916 19.31-132.96 30.56-132.96 102.72 0 70.84 55.544 107.040 124.32 107.040 59.976 0 103.996-27.682 119.040-37.92l-29.28-53.76c-2.242 2.236-39.784 33.6-91.68 33.6-33.854 0-54.24-12.37-54.24-38.4 0-35.22 65.012-45.078 77.76-48.48 34.626-9.24 109.44-24.24 109.44-100.8 0-79.44-66.314-101.28-126.24-101.28zM666.48 251.68c-48.146 0-65.28 27.988-65.28 61.92v144.48h-33.12v49.44h33.12v81.6h64.32v-81.6h52.798v-49.44h-52.798v-122.88c0-17.866 12.478-24.48 24-24.48 13.646 0 31.202 7.516 35.042 9.12l12.958-50.88c-8.638-3.84-37.186-17.28-71.040-17.28z" />
<glyph unicode="&#xe910;" glyph-name="adobe-story" d="M0 960v-1024h1024v1024h-1024zM964-4h-904v904h904v-904zM120 840v-784h784v784h-784zM400.28 252.16c-74.574 0-123.202 30.076-143.040 44.16l29.28 57.12c2.88-2.878 51.686-41.76 114.72-41.76 36.48 0 54.72 11.678 54.72 35.040 0 29.28-40.948 39.576-51.84 42.72-66.916 19.31-132.96 30.56-132.96 102.72 0 70.84 55.544 107.040 124.32 107.040 59.976 0 103.996-27.682 119.040-37.92l-29.28-53.76c-2.242 2.236-39.784 33.6-91.68 33.6-33.854 0-54.24-12.37-54.24-38.4 0-35.22 65.012-45.078 77.76-48.48 34.626-9.24 109.44-24.24 109.44-100.8 0-79.44-66.314-101.28-126.24-101.28zM684.922 206.080c-6.082-17.594-26.756-60-85.922-60-15.166 0-26.398 3.36-32.16 5.28v55.68c5.438-1.598 18.66-4.8 28.8-4.8 20.026 0 26.88 20.324 29.762 27.36 2.878 7.042 5.916 15.84 9.12 26.4l-99.362 251.52h66.242l68.16-195.84 60.478 195.84h60.48l-105.598-301.44z" />
<glyph unicode="&#xe911;" glyph-name="ajax" d="M370.387 257.517c-24.754 24.194-49.566 49.098-73.566 73.192-23.974 24.066-48.764 48.94-73.446 73.064l-4.648 4.55 4.43 4.754c7.756 8.312 15.926 16.402 23.832 24.192 7.808 7.722 15.876 15.706 23.448 23.81l4.348 4.678 4.84-4.138c11.214-9.604 21.568-20.19 31.58-30.43 4.401-4.524 8.59-8.761 12.812-12.965l0.042-0.041v259.99c0 52.058 10.414 87.218 32.768 110.734 21.984 23.1 55.83 35.086 106.504 37.748 16.826 0.876 32.844 1.334 47.596 1.334 59.916 0 104.694-7.406 133.088-22.012 23.922-12.292 40.636-29.806 51.102-53.528 10.158-23.022 14.194-51.54 12.334-87.18l-0.334-6.29h-116.996l0.644 7.226c2.598 29.184-1.688 50.558-12.736 63.542-7.644 8.996-18.382 13.882-32.834 14.934-5.544 0.404-11.63 0.592-18.606 0.592-6.37 0-12.828-0.158-19.068-0.306-5.424-0.152-11.028-0.27-16.47-0.3-42.312-0.232-62.372-17.918-65.058-57.336-2.020-29.516-1.38-59.584-0.698-91.424 0.35-16.388 0.706-33.322 0.706-50.708v-106.372c0-2.092-0.188-5.324-0.422-9.44-0.18-3.042-0.446-7.618-0.592-11.92 0.364 0.39 0.734 0.788 1.122 1.192 1 1.096 1.496 1.626 1.848 1.972 4.788 4.776 9.558 9.424 14.172 13.922 9.192 8.952 17.864 17.414 26.276 26.508l4.524 4.918 4.892-4.572c8.314-7.752 16.388-15.916 24.204-23.81 7.71-7.812 15.698-15.886 23.81-23.45l4.978-4.648-4.756-4.874c-24.196-24.74-49.104-49.562-73.196-73.558-24.060-23.976-48.94-48.752-73.076-73.44l-4.644-4.762-4.754 4.652zM521.303 67.989c-43.38 0-78.998 0.668-109.622 9.102-33.508 9.226-58.46 26.388-74.182 51.032-16.306 25.578-23.060 59.922-20.076 102.106l0.438 6.178h116.742l-0.492-7.092c-3.528-51.134 9.67-75.394 42.772-78.626 3.902-0.376 8.588-0.57 14.292-0.57 5.172 0 10.74 0.166 16.122 0.3 5.596 0.15 11.37 0.314 16.958 0.314 32.086 0 51.664 3.172 63.22 20.010 10.566 15.406 11.392 37.868 11.392 67.89v238.804c-9.822-9.88-20.388-20.676-30.66-31.156-4.058-4.138-8.046-8.224-11.874-12.108l-4.308-4.386-4.704 3.938c-9.874 8.238-18.842 17.458-27.512 26.352-6.672 6.836-13.558 13.92-20.7 20.36l-5.064 4.574 4.708 4.94c35.292 37.014 72.182 73.552 107.868 108.884 12.64 12.542 25.71 25.466 38.518 38.25l4.648 4.632 4.688-4.588c24.634-24.058 49.318-48.85 73.204-72.826 23.848-23.936 48.508-48.684 73.068-72.718l4.542-4.422-4.224-4.73c-15.439-17.275-31.291-33.131-47.984-48.066l-0.576-0.506-4.698-4.184-4.438 4.466c-4.558 4.596-9.292 9.456-13.872 14.148-9.492 9.73-19.222 19.738-28.694 28.69v-221.352c0-3.696 0.014-7.376 0.022-11.058 0.098-37.304 0.196-72.524-9.232-100.404-9.99-29.552-30.928-50.792-62.216-63.162-30.432-12.004-70.072-13.016-108.074-13.016z" />
<glyph unicode="&#xe912;" glyph-name="asana" d="M801.28 420.16c-123.008 0-222.72-99.712-222.72-222.72s99.712-222.72 222.72-222.72 222.72 99.776 222.72 222.784-99.712 222.72-222.72 222.72zM222.72 420.16c-123.008 0-222.72-99.712-222.72-222.72s99.712-222.72 222.72-222.72 222.72 99.712 222.72 222.72-99.712 222.72-222.72 222.72zM734.72 698.56c0-123.008-99.712-222.72-222.72-222.72s-222.72 99.712-222.72 222.72c0 122.88 99.712 222.72 222.72 222.72s222.72-99.84 222.72-222.72z" />
<glyph unicode="&#xe913;" glyph-name="bootstrap" d="M853.312 960h-682.624c-94.151-0.29-170.398-76.537-170.688-170.66v-682.652c0-93.888 76.8-170.688 170.688-170.688h682.624c93.888 0 170.688 76.8 170.688 170.688v682.624c0 93.888-76.8 170.688-170.688 170.688zM760 240.832c-8.854-21.133-22.277-38.829-39.113-52.478l-0.247-0.194c-17.92-14.72-40.64-26.432-68.608-35.2-27.904-8.64-61.056-12.992-99.52-12.992h-274.432v597.504h290.24c53.632 0 96.64-12.16 128.896-36.8 32.32-24.64 48.512-61.568 48.512-111.36 0-30.080-7.36-55.808-22.080-77.248-14.72-21.12-35.84-37.76-63.232-49.536v-1.728c36.48-7.936 64.64-25.344 83.328-52.288 18.944-27.008 28.48-60.8 28.48-101.76 0-23.296-4.224-45.248-12.544-65.664zM641.6 388.032c-17.472 16-42.112 23.808-73.856 23.808h-184.576v-186.368h184.96c31.68 0 56.448 8.192 73.856 24.768 17.536 16.384 26.368 39.808 26.368 69.952-0.128 29.44-8.96 52.16-26.432 67.84zM616 508.544c16.832 14.272 25.152 34.816 25.152 61.568 0 30.080-7.488 51.392-22.592 63.616-15.040 12.16-36.8 18.432-65.28 18.432h-170.56v-164.864h170.624c25.088 0 46.080 7.232 62.72 21.248z" />
<glyph unicode="&#xe914;" glyph-name="buffer" d="M41.229 700.288l462.285-222.52c5.363-2.58 11.612-2.58 16.975 0l462.285 222.523c14.778 7.107 14.778 28.148 0 35.258l-462.291 222.515c-5.36 2.58-11.609 2.58-16.972 0l-462.282-222.517c-14.778-7.109-14.778-28.148 0-35.258zM41.229 430.377l462.285-222.523c5.363-2.58 11.612-2.58 16.975 0l462.285 222.52c14.778 7.107 14.778 28.148 0 35.264l-97.531 46.94-309.777-149.1c-19.678-9.468-41.627-14.471-63.464-14.471s-43.78 5.003-63.494 14.485l-309.742 149.097-97.54-46.949c-14.775-7.118-14.775-28.157 0.003-35.264zM982.774 195.721l-97.531 46.949-309.777-149.109c-19.678-9.468-41.627-14.471-63.464-14.471s-43.78 5.003-63.494 14.485l-309.742 149.094-97.54-46.952c-14.778-7.115-14.778-28.148 0-35.264l462.285-222.52c5.363-2.58 11.612-2.58 16.975 0l462.285 222.52c14.781 7.118 14.781 28.154 0.003 35.266z" />
<glyph unicode="&#xe915;" glyph-name="bulma" horiz-adv-x="709" d="M15.158 268.594c3.443 24.361 7.049 50.097 10.724 75.826 7.349 51.457 14.753 102.905 22.105 154.361 7.254 50.768 14.449 101.547 21.715 152.315 1.568 10.974 4.403 21.89 4.734 32.891 0.4 13.308 6.713 22.244 15.723 31.198 76.662 76.183 153.081 152.614 229.236 229.305 6.592 6.638 9.679 6.236 16.027-0.14 99.061-99.497 198.343-198.771 297.832-297.838 6.169-6.144 6.167-9.147-0.006-15.268-57.513-57-114.561-114.467-172.067-171.471-6.574-6.517-7.22-10.004-0.238-16.939 78.168-77.63 155.902-155.694 233.991-233.401 6.282-6.248 7.821-8.899-0.936-14.705-119.795-79.419-239.337-159.227-358.807-239.134-5.873-3.929-9.147-4.294-14.586 1.17-99.808 100.221-199.884 200.174-299.865 300.224-2.838 2.841-7.001 5.095-5.581 11.606z" />
<glyph unicode="&#xe916;" glyph-name="circleci" d="M390.144 448c0 67.584 54.784 121.856 121.856 121.856s121.856-54.784 121.856-121.856-54.784-121.856-121.856-121.856-121.856 54.784-121.856 121.856zM512 960c-239.104 0-439.296-163.84-496.128-385.024-0.512-1.536-0.512-3.072-0.512-5.12 0-13.312 10.752-24.576 24.576-24.576h206.336c9.728 0 18.432 5.632 22.016 14.336 42.496 92.16 135.68 156.672 243.712 156.672 147.968 0 268.288-120.32 268.288-268.288s-120.32-268.288-268.288-268.288c-108.032 0-201.216 64-243.712 156.672-4.096 8.192-12.288 14.336-22.016 14.336h-206.336c-13.312 0-24.576-10.752-24.576-24.576 0-1.536 0.512-3.072 0.512-5.12 56.32-221.184 257.024-385.024 496.128-385.024 282.624 0 512 229.376 512 512s-229.376 512-512 512z" />
<glyph unicode="&#xe917;" glyph-name="foundation" horiz-adv-x="760" d="M16.46 447.185c0 159.101 0.338 318.206-0.467 477.302-0.092 18.119 5.521 21.264 22.11 21.222 229.276-0.525 458.553-0.505 687.829-0.033 15.68 0.033 21.272-3.315 20.997-20.188-1.013-61.815-0.988-123.671 0.083-185.485 0.304-17.677-5.313-21.539-22.265-21.464-143.809 0.646-287.634 0.008-431.443 0.671-15.797 0.075-19.804-4.008-19.375-19.358 1.080-38.879 1.276-77.836-0.042-116.698-0.559-16.506 4.158-20.559 20.426-20.48 138.95 0.663 277.909 0.496 416.864 0.321 32.448-0.042 26.464 1.576 26.606-26.656 0.279-56.973-0.98-113.975 0.605-170.898 0.563-20.284-5-25.459-24.904-25.313-124.359 0.926-248.73 0.58-373.093 0.613-16.672 0.008-33.411-1.13-49.996 0.025-13.057 0.913-16.456-3.436-16.335-16.151 0.592-64.609 0.292-129.221 0.296-193.838 0-56.272-0.392-112.557 0.263-168.826 0.158-13.649-3.803-17.715-17.69-17.577-73.641 0.726-147.299 1.055-220.928-0.025-17.69-0.263-19.838 6.418-19.8 21.364 0.421 160.494 0.259 320.983 0.259 481.472z" />
<glyph unicode="&#xe918;" glyph-name="git" d="M1004.672 493.632l-447.36 447.040c-25.792 25.728-67.584 25.728-93.44 0l-92.672-92.8 117.76-117.76c27.52 9.216 58.88 3.008 80.64-18.816 22.016-21.952 28.16-53.632 18.688-81.088l113.536-113.472c27.52 9.472 59.2 3.328 81.152-18.56 30.72-30.72 30.72-80.384 0-111.040-30.72-30.72-80.384-30.72-111.040 0-23.040 23.040-28.8 56.96-17.088 85.248l-106.112 105.92v-278.528c7.488-3.712 14.528-8.64 20.8-14.848 30.592-30.72 30.592-80.32 0-110.976-30.72-30.72-80.448-30.72-111.104 0-30.72 30.72-30.72 80.32 0 110.976 7.552 7.552 16.384 13.312 25.728 17.152v281.152c-9.344 3.84-18.112 9.472-25.728 17.088-23.232 23.232-28.8 57.28-16.896 85.76l-116.096 116.16-306.88-306.56c-25.6-25.792-25.6-67.52 0-93.312l447.488-447.040c25.728-25.792 67.52-25.792 93.312 0l445.312 444.992c25.792 25.728 25.792 67.52 0 93.312z" />
<glyph unicode="&#xe919;" glyph-name="googleanalytics" d="M941.824-64h-860.992c-44.48 0-80.832 36.352-80.832 80.832v188.608c0 44.48 36.352 80.896 80.832 80.896h242.56v269.44c0 44.48 36.352 80.832 80.832 80.832h270.080v241.28c0 45.056 37.12 82.112 82.24 82.112h185.344c44.992 0 82.112-37.12 82.112-82.176v-859.648c0-45.056-37.12-82.176-82.176-82.176z" />
<glyph unicode="&#xe91a;" glyph-name="heroku" d="M879.36 960h-734.72c-51.2 0-92.16-40.96-92.16-92.16v-839.68c0-51.2 40.96-92.16 92.16-92.16h734.72c51.2 0 92.16 40.96 92.16 92.16v839.68c0 51.2-40.96 92.16-92.16 92.16zM920.32 28.16c0-23.040-17.92-40.96-40.96-40.96h-734.72c-23.040 0-40.96 17.92-40.96 40.96v839.68c0 23.040 17.92 40.96 40.96 40.96h734.72c23.040 0 40.96-17.92 40.96-40.96v-839.68zM282.88 89.6l115.2 102.4-115.2 102.4v-204.8zM697.6 504.32c-20.48 20.48-58.88 46.080-122.88 46.080-69.12 0-140.8-17.92-192-35.84v291.84h-102.4v-442.88l71.68 33.28s117.76 53.76 220.16 53.76c51.2 0 64-28.16 64-53.76v-307.2h102.4v307.2c2.56 7.68 2.56 64-40.96 107.52zM561.92 640h102.4c46.080 53.76 69.12 107.52 76.8 166.4h-102.4c-10.24-58.88-35.84-112.64-76.8-166.4z" />
<glyph unicode="&#xe91b;" glyph-name="hootsuite" d="M513.024 960c61.952-0.192 119.936-17.024 169.984-46.080 50.112 28.8 108.16 45.312 169.92 45.12v-1023.040c-376.448 1.088-682.88 305.28-681.856 682.048v340.992c61.888 0.192 119.872-16.32 169.92-45.12 50.176 29.248 108.416 46.080 170.56 46.080h1.472zM658.816 835.712c-76.288 0.256-139.136-58.24-145.92-132.8l-0.64 0.896-0.64-0.896c-6.4 74.688-68.864 133.44-145.28 133.76-80.64 0.192-146.368-65.152-146.56-145.92-0.256-80.832 65.024-146.432 145.792-146.56 28.8-0.192 55.424 8.128 78.080 22.4l67.968-68.352 68.48 67.968c22.528-14.4 49.152-22.848 77.888-22.912 80.896-0.32 146.56 64.96 146.752 145.728 0.256 80.768-65.024 146.432-145.92 146.56zM658.176 592c-53.76 0.192-97.408 43.968-97.28 97.792 0 10.048 1.6 19.712 4.48 28.8 7.552-16.96 24.512-28.8 44.352-28.928 26.88 0 48.768 21.76 48.832 48.64 0 19.84-11.776 36.736-28.8 44.416 9.216 2.816 18.944 4.288 28.928 4.288 53.76-0.192 97.408-43.904 97.28-97.792-0.192-53.888-43.968-97.408-97.792-97.28zM365.696 592.832c-53.76 0.192-97.408 43.904-97.28 97.792 0.192 53.888 44.032 97.408 97.92 97.28 9.984 0 19.648-1.6 28.8-4.48-17.024-7.488-28.928-24.448-28.992-44.288 0-26.88 21.76-48.768 48.64-48.896 19.84 0 36.8 11.776 44.48 28.8 2.816-9.152 4.288-18.88 4.288-28.928-0.192-53.76-43.968-97.28-97.792-97.28z" />
<glyph unicode="&#xe91c;" glyph-name="intercom" d="M896 960h-768c-70.72 0-128-57.28-128-128v-768c0-70.72 57.28-128 128-128h768c70.72 0 128 57.28 128 128v768c0 70.72-57.28 128-128 128zM648.512 772.288c0 18.816 15.36 34.112 34.176 34.112s34.112-15.36 34.112-34.112v-456c0-18.88-15.36-34.176-34.112-34.176-18.88 0-34.176 15.36-34.176 34.176v456zM477.888 789.568c0 18.816 15.232 34.112 34.112 34.112s34.112-15.36 34.112-34.112v-494.976c0-18.816-15.232-34.112-34.112-34.112s-34.112 15.36-34.112 34.112v494.976zM307.2 772.288c0 18.816 15.36 34.112 34.112 34.112 18.88 0 34.176-15.36 34.176-34.112v-456c0-18.88-15.36-34.176-34.176-34.176s-34.112 15.36-34.112 34.176v456zM136.512 704c0 18.88 15.36 34.112 34.176 34.112s34.112-15.232 34.112-34.112v-307.008c0-18.816-15.36-34.112-34.112-34.112-18.88 0-34.176 15.36-34.176 34.112v307.008zM875.52 183.36c-5.248-4.48-131.712-110.592-363.52-110.592s-358.272 106.048-363.52 110.592c-14.336 12.288-16 33.792-3.712 48.128 12.16 14.272 33.728 16 48 3.84 2.048-1.728 114.944-94.336 319.232-94.336 206.848 0 318.080 93.248 319.104 94.208 14.272 12.288 35.84 10.624 48.128-3.712s10.624-35.84-3.712-48.128zM887.488 396.992c0-18.816-15.36-34.112-34.176-34.112s-34.112 15.36-34.112 34.112v307.008c0 18.88 15.36 34.112 34.112 34.112 18.88 0 34.176-15.232 34.176-34.112v-307.008z" />
<glyph unicode="&#xe91d;" glyph-name="invision" d="M931.2 960c51.2 0 92.8-41.6 92.8-92.8v-838.4c0-51.2-41.6-92.8-92.8-92.8h-838.4c-51.2 0-92.8 41.6-92.8 92.8v838.4c0 51.2 41.6 92.8 92.8 92.8h838.4zM212.48 307.712c-3.648-15.616-5.504-32.512-5.504-46.272 0-54.272 29.44-90.24 92.032-90.24 51.84 0 93.952 30.72 124.16 80.448l-18.432-74.24h103.040l58.88 236.16c14.72 59.84 43.2 90.88 86.4 90.88 34.048 0 55.232-21.12 55.232-56.128 0-10.112-0.896-21.12-4.608-33.088l-30.336-108.544c-4.48-15.68-6.4-31.36-6.4-46.080 0-51.456 30.336-89.152 93.824-89.152 54.272 0 97.536 34.88 121.472 118.592l-40.512 15.616c-20.16-56.064-37.632-66.24-51.456-66.24-13.76 0-21.12 9.216-21.12 27.52 0 8.32 1.792 17.536 4.48 28.608l29.568 105.6c7.296 24.96 10.112 46.912 10.112 67.2 0 79.104-47.872 120.32-105.792 120.32-54.272 0-109.44-48.896-137.088-100.48l20.288 92.544h-157.44l-22.144-81.472h73.6l-45.312-181.44c-35.584-78.976-100.864-80.256-109.184-78.464-13.44 3.072-22.080 8.192-22.080 25.728 0 10.048 1.92 24.576 6.4 42.048l69.12 273.664h-174.912l-22.080-81.472h72.704l-46.912-191.68zM342.208 637.824c34.048 0 62.592 26.688 62.592 61.632 0 34.88-28.544 61.568-62.592 61.568s-62.528-26.688-62.528-61.632c0-35.008 28.48-61.696 62.528-61.696z" />
<glyph unicode="&#xe91e;" glyph-name="jquery" d="M918.344 265.453c-337.92-552.96-1075.2 71.68-716.8 460.8-51.2-686.080 614.4-593.92 716.8-460.8zM406.344 787.693c-286.72-266.24 266.24-727.040 512-317.44-102.4-102.4-573.44-102.4-512 317.44zM611.144 849.133c-51.2-245.76 225.28-276.48 307.2-215.040-235.52-245.76-491.52 102.4-307.2 215.040z" />
<glyph unicode="&#xe91f;" glyph-name="json" d="M513.088-64c20.48 0.192 40.704 1.28 60.928 3.968 46.272 5.888 91.776 18.56 134.784 36.864 60.16 25.728 115.456 62.848 162.24 108.672 43.072 42.24 78.72 91.904 104.64 146.368 22.208 46.848 36.992 97.152 43.84 148.48 6.528 49.536 5.888 100.16-1.664 149.44-6.272 40.96-17.536 80.96-33.92 119.040-10.24 23.936-22.4 47.040-36.48 69.12-50.112 78.464-122.56 141.632-205.44 183.68-29.76 15.168-60.8 27.52-92.8 37.12h-0.32c5.12-2.688 10.24-5.632 15.168-8.576 5.12-3.2 10.112-6.272 15.040-9.6 24.192-16.448 46.592-35.328 66.432-56.832 45.184-48.832 76.416-108.8 94.72-172.544 12.032-41.984 18.56-85.376 21.12-128.896 1.92-31.744 2.048-63.68-1.728-95.232-6.528-54.208-24-107.2-52.928-153.6-21.312-34.24-48.768-64.832-81.152-88.96-53.312-39.68-123.264-63.36-189.568-47.616-11.008 2.56-21.76 6.272-32.128 11.008-11.712 5.312-22.912 11.84-33.536 19.2-19.648 13.248-37.504 29.248-52.928 47.232-19.072 22.208-34.368 47.488-45.184 74.624-13.824 34.432-20.48 71.424-21.376 108.48-1.28 54.4 9.472 109.056 36.16 156.8 17.728 31.744 42.048 59.648 70.72 81.92 9.6 7.552 19.84 14.208 30.4 20.48l0.64 0.256c-20.16 4.8-40.96 6.4-61.44 5.12-17.92-1.024-35.712-4.48-52.8-9.856-15.232-4.8-29.952-11.264-43.84-19.072-11.136-6.208-21.76-13.312-31.744-21.12-9.344-7.36-18.176-15.36-26.432-23.68-48.128-49.28-75.904-114.816-86.592-182.080-6.528-41.6-6.528-83.968-3.456-125.888 4.288-59.328 16.192-118.592 40.064-173.248 14.592-33.472 33.728-64.896 57.472-92.608 36.096-42.048 82.24-74.624 133.632-95.232 28.8-11.52 59.2-19.84 90.048-22.848 3.072-0.192 6.144-0.448 9.216-0.448zM387.776-47.040c-6.592 3.008-12.928 6.4-19.2 9.728-6.4 3.52-12.8 7.232-19.008 11.072-24.512 15.488-47.232 33.6-67.456 54.528-46.912 48.512-78.4 109.568-96.32 174.272-12.288 44.16-18.56 89.728-20.672 135.424-1.408 29.696-1.28 59.52 1.92 88.96 5.76 53.568 21.12 106.432 48.448 152.96 19.648 33.728 45.44 63.872 76.608 87.488 21.248 16 44.8 29.056 70.016 37.952 35.2 12.352 72.96 16.64 109.952 11.328 13.888-1.92 28.16-5.12 41.216-9.984 1.28-0.384 1.28-0.448 2.304-1.152 0.832-0.64 1.792-0.768 2.688-1.28 2.368-0.96 4.608-2.048 6.912-3.2 10.368-5.312 20.352-11.392 29.888-18.112 38.528-27.136 69.76-64.256 89.472-107.136 18.112-39.296 26.24-82.56 26.88-125.632 0.512-46.080-7.68-92.48-27.328-134.4-23.68-50.56-63.616-93.824-112.64-120.832 3.84-1.088 7.68-2.048 11.392-2.88 9.792-2.048 19.648-3.328 29.632-3.648 62.72-2.112 123.392 28.16 168.448 70.208 8.128 7.68 16 15.872 23.296 24.448 9.6 11.136 18.304 22.912 26.24 35.2 9.92 15.552 18.56 32 25.92 48.96 9.6 22.72 17.024 46.464 21.952 70.72 8.64 42.56 9.216 86.080 6.4 129.28-5.888 86.272-28.8 172.8-78.464 244.48-7.296 10.624-15.104 20.928-23.552 30.72-13.952 15.872-28.928 30.72-45.312 44.16-18.176 14.976-37.76 28.032-58.496 39.040-23.232 12.48-48.064 22.208-73.92 28.608l-13.952 2.176c-9.088 1.152-18.112 2.112-27.2 2.56-14.464 0.64-29.056 0.256-43.52-0.64-30.4-1.92-60.608-6.784-90.24-14.336-143.68-36.672-269.12-136.64-336.128-269.184-21.312-42.112-36.544-87.296-45.248-133.632-9.92-53.12-11.2-107.776-4.48-161.28 5.376-43.648 16.448-86.528 33.28-127.168 9.856-24.32 21.76-47.616 35.584-69.888 47.040-75.904 114.88-137.856 192.96-180.8 29.44-16.192 60.288-29.44 92.16-40.32 9.792-3.2 19.648-6.208 29.568-8.832z" />
<glyph unicode="&#xe920;" glyph-name="knexjs" d="M1018.302 391.889l-126.044 60.888 119.404 55.844c9.26 4.344 14.696 15.8 8.292 26.48l-12.408 14.364c-8.008 8.756-16.704 15.144-27.268 10.988l-88.712-33.44c-1.936-0.728-4.060-0.82-6.052-0.256l-34.34 9.728c-2.548 0.72-5.284 0.044-7.204-1.776l-36.732-34.868c-8.232 47.196-27.416 90.628-54.964 127.484l53.7 0.42c2.312 0.020 4.436 1.284 5.552 3.312l19.008 34.476c0.988 1.796 2.552 3.208 4.436 4.008l87.872 37.468c5.396 2.3 8.716 13.512 7.68 20.784l-2.86 26.24c-2.336 7.536-12.916 14.168-17.976 12.3l-132.18-46.072 44.944 123.92c3.476 9.62-0.78 21.56-12.86 24.588l-18.932 1.38c-11.856 0.528-22.52-1.1-27.052-11.512l-39.084-86.372c-0.852-1.884-2.288-3.448-4.096-4.46l-31.16-17.404c-2.312-1.292-3.768-3.704-3.84-6.348l-1.32-50.648c-37.592 26.416-81.496 44.424-129.036 51.268l37.7 38.296c1.624 1.652 2.232 4.048 1.588 6.268l-10.94 37.82c-0.568 1.968-0.464 4.072 0.3 5.972l35.644 88.628c2.192 5.44-3.388 15.72-9.268 20.128l-20.572 16.532c-6.984 3.672-19.156 0.884-21.412-4.012l-60.888-126.048-55.844 119.404c-4.344 9.264-15.796 14.696-26.48 8.296l-14.364-12.412c-8.756-8.008-15.144-16.7-10.984-27.268l33.436-88.708c0.732-1.94 0.82-4.060 0.256-6.052l-9.724-34.344c-0.724-2.544-0.048-5.28 1.776-7.2l34.864-36.732c-47.196-8.236-90.628-27.416-127.48-54.964l-0.424 53.696c-0.016 2.316-1.284 4.436-3.308 5.556l-34.48 19.008c-1.792 0.988-3.204 2.548-4.008 4.432l-37.464 87.876c-2.3 5.396-13.512 8.716-20.788 7.676l-26.24-2.856c-7.532-2.34-14.168-12.92-12.3-17.976l46.076-132.184-123.92 44.944c-9.624 3.48-21.564-0.78-24.592-12.86l-1.38-18.932c-0.528-11.852 1.1-22.52 11.512-27.048l86.372-39.084c1.888-0.856 3.452-2.292 4.46-4.1l17.408-31.16c1.288-2.308 3.704-3.768 6.348-3.836l50.644-1.32c-26.412-37.592-44.424-81.496-51.264-129.036l-38.3 37.7c-1.648 1.624-4.044 2.228-6.268 1.588l-37.82-10.94c-1.968-0.572-4.068-0.464-5.968 0.3l-88.628 35.644c-5.444 2.188-15.72-3.392-20.128-9.268l-16.536-20.576c-3.672-6.98-0.88-19.152 4.016-21.408l126.044-60.888-119.404-55.844c-9.264-4.344-14.696-15.8-8.296-26.48l12.412-14.364c8.008-8.756 16.704-15.144 27.268-10.988l88.712 33.44c1.936 0.728 4.056 0.82 6.052 0.256l34.34-9.728c2.544-0.72 5.284-0.044 7.204 1.776l36.732 34.868c8.232-47.196 27.416-90.628 54.964-127.484l-53.7-0.42c-2.312-0.020-4.436-1.284-5.552-3.312l-19.008-34.476c-0.992-1.796-2.552-3.204-4.436-4.012l-87.872-37.464c-5.396-2.3-8.72-13.512-7.68-20.784l2.856-26.24c2.34-7.536 12.92-14.168 17.98-12.3l132.18 46.072-44.944-123.92c-3.476-9.62 0.78-21.56 12.86-24.588l18.932-1.38c11.852-0.528 22.52 1.1 27.048 11.512l39.084 86.372c0.856 1.884 2.292 3.448 4.1 4.46l31.16 17.404c2.308 1.292 3.768 3.704 3.836 6.348l1.324 50.648c37.592-26.416 81.492-44.424 129.036-51.268l-37.704-38.296c-1.62-1.652-2.228-4.048-1.584-6.268l10.94-37.82c0.568-1.968 0.46-4.072-0.304-5.972l-35.644-88.628c-2.188-5.44 3.392-15.72 9.272-20.128l20.572-16.532c6.98-3.672 19.152-0.884 21.412 4.012l60.884 126.048 55.848-119.404c4.344-9.264 15.796-14.696 26.48-8.296l14.36 12.412c8.756 8.008 15.148 16.704 10.988 27.268l-33.436 88.708c-0.732 1.94-0.82 4.060-0.256 6.052l9.724 34.344c0.72 2.544 0.044 5.28-1.776 7.2l-34.864 36.736c47.192 8.232 90.628 27.412 127.48 54.964l0.424-53.704c0.016-2.312 1.284-4.436 3.308-5.552l34.48-19.008c1.792-0.988 3.204-2.548 4.008-4.432l37.464-87.876c2.3-5.396 13.512-8.716 20.788-7.676l26.236 2.856c7.536 2.34 14.168 12.92 12.304 17.976l-46.076 132.184 123.92-44.944c9.624-3.48 21.564 0.78 24.592 12.86l1.38 18.932c0.528 11.852-1.104 22.52-11.512 27.048l-86.372 39.084c-1.888 0.856-3.452 2.292-4.464 4.1l-17.404 31.16c-1.292 2.308-3.704 3.768-6.348 3.836l-50.648 1.32c26.416 37.592 44.424 81.496 51.268 129.036l38.3-37.7c1.648-1.624 4.044-2.228 6.264-1.588l37.824 10.94c1.964 0.572 4.068 0.464 5.968-0.3l88.628-35.644c5.444-2.188 15.72 3.392 20.128 9.268l16.532 20.576c3.676 6.98 0.884 19.152-4.012 21.408v0zM726.938 481.433h-63.74c-4.636 21.068-13.556 40.516-25.812 57.404l44.676 44.676c23.084-28.928 38.976-63.844 44.876-102.080v0zM595.258 578.541c-17.524 11.204-37.436 18.992-58.828 22.384v63.172c38.58-4.312 74.096-18.708 103.876-40.508l-45.048-45.048zM587.498 448.001c0-41.696-33.8-75.5-75.5-75.5-41.696 0-75.5 33.804-75.5 75.5s33.804 75.5 75.5 75.5c41.7 0 75.5-33.804 75.5-75.5v0zM478.566 662.941v-63.74c-21.068-4.64-40.516-13.56-57.4-25.812l-44.68 44.676c28.932 23.084 63.844 38.976 102.080 44.876v0zM381.458 531.261c-11.2-17.528-18.992-37.44-22.38-58.828h-63.176c4.316 38.58 18.712 74.096 40.508 103.876l45.048-45.048zM297.062 414.569h63.74c4.636-21.068 13.556-40.516 25.812-57.404l-44.68-44.676c-23.080 28.928-38.972 63.844-44.872 102.080v0zM428.738 317.461c17.528-11.204 37.44-18.992 58.828-22.384v-63.172c-38.576 4.312-74.096 18.708-103.872 40.508l45.044 45.048zM545.434 233.061v63.74c21.064 4.64 40.516 13.56 57.4 25.812l44.676-44.676c-28.928-23.084-63.844-38.976-102.076-44.876v0zM642.542 364.741c11.2 17.528 18.988 37.44 22.38 58.828h63.176c-4.316-38.58-18.712-74.096-40.508-103.876l-45.048 45.048z" />
<glyph unicode="&#xe921;" glyph-name="mailchimp" d="M997.696 293.248c12.224-29.504-11.776-64.96-11.776-64.96-0.832-2.624-76.224-292.288-372.352-292.288-256.064 0.064-377.472 222.592-377.472 222.592-18.56-1.024-36.608 1.92-53.12 8.064-75.136 27.52-111.168 113.536-85.248 185.6l-41.28 31.552c-159.936 121.792 293.12 679.232 453.312 553.152l38.080-30.72c57.6 34.88 114.56 53.76 161.088 53.76 32.832 0 60.352-9.6 78.656-29.632 41.6-44.992 26.752-131.072-30.080-218.112 12.288-11.52 22.336-27.264 29.568-42.88 18.048-13.952 29.824-35.136 35.584-64.384 6.464-32.512 7.808-78.848 11.904-98.688 15.296-6.912 8.768-3.712 25.088-11.84 17.024-8.576 37.76-18.944 60.672-40.96 40.704-10.176 56.256-53.568 32.384-83.008-0.64-0.768-3.456-4.16-6.4-7.488 0.64-1.92 8.448-14.592 14.080-40.32 16.896-4.032 30.336-14.4 37.376-29.44zM654.464 246.528c-19.52-0.896-31.616 2.304-38.4-20.48-0.512-1.92-0.896-4.224-1.088-6.592 76.288-24.064 197.12 22.784 208.768 25.472l1.152 0.192c7.552-0.64-64.896-46.208-165.376-46.208-16.96 0-31.552 1.472-43.072 3.84 5.44-18.88 19.84-27.2 38.72-31.616 14.336-3.328 29.568-3.648 29.568-3.648 139.2-3.84 253.696 103.936 258.432 109.44 0 0-1.28-2.88-1.28-3.2-20.48-45.888-138.624-129.088-256.256-126.72l-0.384-0.128c-27.264 0-60.416 7.040-77.632 28.48-27.264 33.792-13.12 89.984 30.336 91.328l14.4 0.32c107.52 3.328 204.16 42.88 273.28 125.44 9.408 11.712-1.28 27.904-21.76 28.416h-0.32l-0.192 0.256c-24.448 26.112-45.888 35.328-64.96 45.056-40.064 20.48-36.288 2.752-45.568 101.76-2.56 26.624-7.68 62.976-31.040 76.928-6.144 3.648-12.8 5.12-19.84 5.12-6.848 0-10.24-1.28-11.52-1.6-12.8-2.816-20.16-10.048-29.312-18.56-43.2-39.68-77.696-28.992-129.28-28.48-48.384 0.384-91.072-33.28-99.2-85.12v-0.128c-4.032-27.136-1.472-54.72 2.752-67.072 0 0-13.12 8.704-19.392 16.448 7.68-47.36 50.816-78.336 50.816-78.336-6.72-1.536-16.512-0.896-16.512-0.896s24.64-19.52 46.080-26.24c-5.632-3.52-33.792-31.36-48.32-69.568-13.632-35.84-8.064-78.848-8.064-78.848l11.84 17.6s-7.68-39.168 7.232-77.184c4.928 11.328 15.744 31.488 15.744 31.488s-1.664-42.112 18.56-76.608c0.64 7.872 3.584 28.16 3.584 28.16s11.648-35.968 38.528-61.12c50.304-44.672 183.552-52.736 284.992 26.88 80.32 63.232 94.336 139.2 95.68 141.824 19.84 23.68 14.4 47.104-11.712 47.104-8.32 0-14.592-2.176-14.592-2.176s0 34.56-16 61.568c-12.288-13.888-46.528-41.408-91.52-62.72-42.048-19.968-98.304-37.504-167.936-39.808zM226.688 192c64.512 0 113.344 61.248 102.080 128.32 0 0-6.592-15.36-12.8-23.552 1.536 24.064-2.24 47.808-9.6 70.4 0 0-3.328-13.504-9.728-29.888-6.208 52.48-28.288 63.616-28.288 63.616-12.672 5.952-26.752 9.152-41.6 9.152-57.216 0-103.68-48.896-103.68-109.056 0-60.224 46.464-108.992 103.68-108.992zM252.224 335.616h-0.128c-3.008 0-6.784-1.088-9.856-4.16-5.376-5.632-7.040-17.472 1.472-26.752 9.472-10.24 24.192-12.672 26.432-25.472 0.384-1.856 0.512-3.84 0.384-5.888 0-2.24-0.768-5.568-0.768-5.76-2.56-11.072-12.16-21.76-27.968-21.76h-0.128c-1.92 0-3.904 0.192-5.952 0.448-2.048 0.32-3.52 0.64-4.8 0.64-0.896 0-1.536-0.192-1.792-0.64-1.472-2.048 6.528-11.328 21.248-11.328h0.768c21.824 0.512 39.808 22.656 35.456 47.36-3.84 21.44-25.28 25.92-33.28 32.32-2.112 1.664-3.2 3.2-3.84 5.504-0.832 4.16-0.384 6.528 3.2 9.088 2.752 1.92 4.992 2.816 4.992 3.968 0.064 1.088-2.304 2.368-5.504 2.368zM205.888 349.632c1.088 0.64 2.368 1.024 3.648 1.664l1.792 0.64c4.096 1.216 1.792 0.704 6.016 1.536h0.192c3.968 0.896 7.808 1.28 11.392 1.28h0.128c16.512-0.064 28.544-8.192 34.56-16.512 5.44-7.68 3.712-12.224 5.952-14.4 0.512-0.512 1.152-0.832 1.92-0.832 0.384 0 0.768 0.128 1.152 0.32 3.008 1.28 4.608 6.144 4.928 9.6 0.832 8.256-3.648 17.472-9.408 24.064-7.488 8.64-19.328 15.488-32.768 17.6-3.2 0.448-6.272 0.64-9.472 0.64h-0.192c-8.32 0-15.36-1.472-17.92-2.24-1.728-0.512-3.84-0.96-5.76-1.6-32.768-12.8-47.040-44.8-40.192-76.8 1.728-7.68 5.184-16.32 10.56-22.080 3.072-3.328 6.336-4.864 8.576-4.864h0.128c2.624 0 4.032 2.112 2.304 5.76-0.768 1.856-4.8 9.536-5.44 23.424-0.512 14.208 2.752 28.992 11.968 40.32 6.72 8.32 15.040 12.032 16 12.48zM68.672 420.736c5.504-9.344 44.096-37.76 44.544-37.76 15.168 20.864 32.32 36.224 49.728 45.824h-1.664c34.816 121.728 128.512 246.848 224.256 328.256 23.68 20.352 88.128 66.368 71.68 52.608l-54.144 47.68-3.968 27.52 74.56-61.44c-3.456-2.752-6.848-5.568-10.24-8.512-7.232-6.208-14.656-12.864-21.952-19.648-10.752-9.984-21.44-20.48-32-31.36-22.72-23.488-44.864-48.832-65.728-75.072-36.8-46.208-52.096-67.84-75.392-111.808 0 0 127.040 152.32 158.72 183.68 58.048 57.6 153.152 121.792 154.048 122.432 40.64 24.832 74.88 39.424 103.040 45.696-46.208-4.672-95.616-28.352-134.4-51.712l-56.448 47.68-20.672-7.872c-75.072 17.792-240.448-106.88-339.648-264.96-40.192-64-96.704-176.512-64.256-231.296zM615.040 442.944c-2.56 0-5.184-0.128-7.872-0.64-2.624-0.384-5.056-1.152-7.36-1.792-0.896-0.256-1.728-0.512-2.56-0.896-5.12-2.112-9.536-4.48-13.76-8.64-4.928-4.736-6.4-9.152-4.928-10.24 0.32-0.32 0.704-0.32 1.152-0.32 1.92 0 4.864 1.408 8.96 3.072 13.504 5.568 23.872 7.040 33.472 7.040h0.128c2.88 0 5.76-0.128 8.64-0.32 2.432-0.192 4.608-0.448 6.272-0.448h0.192c2.24 0 3.52 0.384 4.16 1.28 1.664 2.88-9.6 12.032-26.24 12.032zM718.912 450.176c-4.608 0-8.576-1.856-10.496-5.312-3.2-5.888 0.704-14.336 8.832-18.688 3.328-1.856 6.848-2.688 10.048-2.688 4.608 0 8.576 1.856 10.496 5.312 3.328 5.952-0.704 14.272-8.832 18.752-3.264 1.792-6.784 2.688-9.984 2.688zM772.032 468.672c-5.44-0.064-10.56-5.568-11.648-13.12-1.28-8.064 2.432-15.36 8.32-16.256 0.448-0.064 0.832-0.192 1.28-0.192 5.44 0.064 10.496 5.568 11.648 13.056 1.28 8.128-2.496 15.424-8.448 16.32-0.448 0.128-0.768 0.128-1.088 0.128zM593.536 483.712h-0.128c-15.872 0-31.744-5.376-44.544-15.616-9.472-7.68-13.632-15.68-9.344-16.32h0.64c2.88 0 8.192 2.176 15.36 4.928 15.488 5.888 27.584 8.448 38.784 8.448h0.256c11.072 0 21.248-2.56 33.024-6.848 7.040-2.816 12.352-5.12 15.36-5.12 0.832 0 1.472 0.256 1.92 0.64 0.832 1.024 0.256 3.392-1.92 6.592-5.76 8.32-16.768 15.616-26.56 19.2-7.36 2.752-15.168 4.032-22.848 4.032zM739.072 498.176c-3.008 9.024-4.416 17.536-4.736 26.752-0.192 7.68 1.024 20.416 8.32 22.848 12.352 4.288 28.8-27.328 29.44-55.488-9.728 4.864-21.248 6.912-33.024 5.952zM354.304 577.088c28.864 37.568 66.304 73.792 117.376 106.88 111.488 72.32 222.912 80.64 261.12 51.328l-0.896 2.368c-9.728 20.608-32.384 34.944-52.48 40.704 3.52-3.648 8.64-10.368 10.688-14.336-15.168 10.432-35.392 19.52-56.512 24 0 0 2.56-1.856 2.88-2.304 4.288-3.84 9.92-10.048 12.16-15.36-20.16 8.128-45.632 12.672-67.392 8.512l-2.688-0.64 3.328-0.896c7.232-2.112 17.6-6.528 22.208-12.48-36.224 6.272-76.032-0.768-97.536-12.8 2.752 0.128 2.752 0.128 5.12 0 7.872-0.192 23.808-1.28 30.4-5.568-22.784-4.608-55.808-14.72-73.6-30.080 3.136 0.256 20.992 2.624 28.288 1.536-97.28-55.68-141.952-139.776-142.464-140.8zM508.224 849.92l-46.976 14.336 30.976-25.984 0.448 0.32c4.416 3.328 9.6 7.168 15.488 11.328zM531.776 865.92c-5.12-3.328-9.984-6.528-14.464-9.728l-8.32 28.8 22.848-19.072zM469.952 880.896l-3.84 15.872 6.528 20.16 11.2-40.512-13.824 4.48z" />
<glyph unicode="&#xe922;" glyph-name="microsoft-excel" d="M1004.928 827.712h-343.040v-63.488h101.12v-100.48h-101.12v-32.32h101.12v-100.48h-101.12v-32.896h101.12v-94.848h-101.12v-38.080h101.12v-95.36h-101.12v-38.080h101.12v-95.872h-101.12v-69.888h343.040c5.376 1.6 9.92 7.936 13.568 19.072 3.648 11.2 5.504 20.224 5.504 27.136v704c0 5.44-1.92 8.704-5.504 9.856-3.648 1.152-8.192 1.728-13.568 1.728zM960.448 135.872h-164.608v95.808h164.608v-95.872zM960.448 269.824h-164.608v95.36h164.608v-95.36zM960.448 403.264h-164.608v94.656h164.608v-94.72zM960.448 530.944h-164.608v100.48h164.608v-100.48zM960.448 663.808h-164.608v100.352h164.608v-100.48zM0 843.392v-793.6l604.16-104.512v1005.504l-604.16-107.52zM358.080 243.2c-2.304 6.208-13.12 32.64-32.32 79.488-19.2 46.72-30.72 73.984-34.112 81.728h-1.088l-64.768-153.728-86.592 5.76 102.72 191.872-94.080 191.68 88.32 4.672 58.368-150.208h1.152l65.92 157.056 91.2 5.76-108.608-207.808 112-211.968-98.112 5.76z" />
<glyph unicode="&#xe923;" glyph-name="microsoft-onenote" d="M1021.76 525.44v-153.28c0-5.952-2.112-11.008-6.4-15.36-4.224-4.16-9.344-6.4-15.232-6.4h-33.28v196.8h33.28c5.888 0 11.008-2.176 15.232-6.4 4.288-4.288 6.4-9.344 6.4-15.36zM1000.128 327.68c5.888 0 11.008-2.112 15.232-6.4 4.288-4.224 6.4-9.344 6.4-15.232v-153.92c0-5.952-2.112-11.008-6.4-15.36-4.224-4.16-9.344-6.272-15.232-6.272h-33.28v197.184h33.28zM1000.128 766.72c5.888 0 11.392-2.176 16.384-6.4 4.992-4.352 7.488-9.408 7.488-15.36v-153.344c0-6.272-2.56-11.52-7.488-15.552-4.992-4.032-10.496-6.016-16.384-6.016h-55.040v-473.408c0-6.016-2.176-10.688-6.656-14.208s-9.6-5.312-15.552-5.312h-286.080v96.64h222.208v45.632h-222.208v54.4h222.208v43.392h-222.208v56.064h222.208v42.88h-222.208v54.912h222.208v43.328h-222.208v55.68h222.208v43.264h-222.208v54.4h222.208v45.568h-222.208v108.352h293.888c0.64 0 3.2-1.92 7.168-5.76 4.096-3.968 6.528-8.832 7.232-14.72v-34.56h55.040zM582.208 931.584v-967.296l-582.208 100.544v763.584l582.272 103.168zM416.128 644.864l-68.288-4.48v-127.104c-0.768-74.432-0.768-117.44 0-128.896l-136.128 248.32-69.504-2.752v-352.256l54.4-3.968v259.584l146.752-267.264 72.768-4.48v383.36z" />
<glyph unicode="&#xe924;" glyph-name="microsoft-outlook" d="M1024 644.8v-447.040c0-9.856-3.392-18.048-10.112-24.576-6.72-6.592-14.976-9.856-24.832-9.856h-364.608v296.96l68.224-52.48c4.352-3.584 9.728-5.376 16.128-5.376s11.904 1.792 16.64 5.44l298.56 236.928zM624.448 731.008h364.608c9.088 0 16.832-2.688 23.232-8.192 6.4-5.44 9.92-12.8 10.624-21.76l-314.432-250.688-84.032 66.112v214.528zM571.968 923.136v-950.272l-571.968 98.816v749.888l572.032 101.568zM399.104 446.080c-0.768 48.384-13.248 88.448-37.44 120.064-24.192 31.68-54.656 48.256-91.392 49.728-35.648-1.472-65.6-18.048-89.792-49.728-24.32-31.616-36.736-71.68-37.44-120.064 0.64-47.68 13.184-87.296 37.376-119.040 24.128-31.616 54.080-48.32 89.728-50.176 36.352 1.472 66.752 18.112 91.136 49.92 24.32 31.872 36.928 71.68 37.76 119.296zM265.984 552c18.432-0.768 33.92-10.88 46.272-30.592 12.416-19.648 18.56-44.544 18.56-74.752 0-30.272-6.144-55.296-18.56-75.136-12.352-19.84-27.84-29.76-46.336-29.76-18.56 0-34.048 9.984-46.4 29.824-12.48 19.84-18.56 44.8-18.56 75.072 0 30.080 6.080 55.040 18.56 74.688 12.288 19.648 27.776 29.824 46.336 30.592z" />
<glyph unicode="&#xe925;" glyph-name="microsoft-powerpoint" d="M1002.24 789.44h-364.544v-136c21.952 16.64 48.32 25.088 79.168 25.088v-132.16h131.072c-0.768-37.12-13.696-68.352-38.784-93.632s-56.192-38.272-93.44-39.040c-28.8 0.768-54.912 9.472-77.952 26.24v-90.88h286.528v-44.608h-286.528v-55.168h286.528v-44.032h-286.528v-99.84h364.544c14.528 0 21.76 7.68 21.76 22.912v639.36c0 14.528-7.232 21.76-21.76 21.76zM737.472 568.128v133.312c37.12-0.832 68.288-13.76 93.44-38.848 24.96-25.088 37.952-56.576 38.656-94.464h-132.096zM352.32 565.888c-2.24 8.576-5.952 15.232-11.2 20.096-5.12 4.8-12.032 8.32-20.608 10.56-9.6 2.304-19.52 3.392-29.44 3.392l-30.72-1.088v-127.808h1.088c11.136-0.64 22.848-0.832 35.2-0.448 12.16 0.384 23.68 3.52 34.56 9.472 13.312 9.344 21.312 22.144 23.872 38.528 2.56 16.32 1.664 32.128-2.752 47.36zM0 829.568v-765.888l584.192-100.928v970.496l-584.192-103.68zM435.84 484.48c-16-37.12-39.872-60.8-71.808-71.040-32-10.24-66.56-14.208-103.68-11.968v-146.048l-76.928 8.96v400.704l122.048 6.72c22.656 1.472 44.992-1.024 66.88-7.552 21.952-6.528 39.296-19.648 52.16-39.36 12.8-19.648 20.032-42.496 21.76-68.48 1.6-26.048-1.792-50.048-10.368-72z" />
<glyph unicode="&#xe926;" glyph-name="microsoft-word" d="M1024 800.768v-706.048c0-5.952-2.112-10.88-6.4-14.72-4.288-3.968-9.408-5.888-15.36-5.888h-365.184v97.92h297.92v44.608h-297.984v54.592h297.92v44.544h-297.92v55.040h297.92v44.032h-297.92v55.168h297.92v44.544h-297.92v54.528h297.92v44.544h-297.92v55.68h297.92v42.368h-297.92v110.72h365.312c5.952 0 11.072-2.048 15.36-6.4 4.288-4.224 6.4-9.344 6.4-15.232zM582.4 932.736v-969.472l-582.4 100.736v765.184l582.4 103.616zM494.528 646.528l-72.96-4.48-46.72-289.536h-1.152c-2.24 13.696-10.88 61.632-26.24 143.68l-27.2 139.2-68.48-3.392-27.328-135.808c-16-79.104-24.96-125.12-27.264-138.112h-1.088l-41.216 266.688-62.976-3.328 67.328-336.32 69.632-4.48 26.24 130.88c15.168 76.8 23.872 121.408 26.112 133.632h1.664c2.24-12.992 10.88-58.624 26.24-136.96l26.112-134.784 75.136-4.48 84.096 377.6z" />
<glyph unicode="&#xe927;" glyph-name="mysql" d="M941.223 174.422c-55.459 1.383-98.44-4.166-134.49-19.414-10.399-4.158-27.038-4.162-28.425-17.331 5.549-5.549 6.241-14.561 11.094-22.184 8.324-13.86 22.876-32.583 36.049-42.29 14.556-11.090 29.117-22.18 44.365-31.887 27.038-16.639 57.542-26.342 83.884-42.981 15.257-9.698 30.5-22.184 45.752-32.583 7.628-5.541 12.477-14.556 22.185-18.022 0 0.696 0 1.387 0 2.079-4.854 6.241-6.241 15.252-11.090 22.184-6.928 6.932-13.865 13.173-20.797 20.106-20.106 27.034-45.061 50.605-72.098 70.015-22.18 15.252-70.711 36.049-79.722 61.7 0 0-0.696 0.691-1.387 1.383 15.252 1.387 33.274 6.932 47.835 11.094 23.572 6.241 45.061 4.854 69.324 11.090 11.090 2.775 22.185 6.241 33.275 9.707 0 2.083 0 4.158 0 6.236-12.473 12.482-21.489 29.117-34.662 40.903-35.353 30.509-74.177 60.312-114.384 85.267-21.493 13.865-49.223 22.88-72.098 34.662-8.315 4.166-22.185 6.241-27.034 13.173-12.482 15.252-19.414 35.353-28.425 53.38-20.097 38.132-39.515 80.414-56.846 120.621-12.473 27.038-20.101 54.076-35.353 79.031-71.402 117.85-149.046 189.253-268.283 259.272-25.651 14.556-56.15 20.797-88.733 28.421-17.327 0.696-34.662 2.079-51.993 2.775-11.090 4.854-22.184 18.022-31.892 24.263-39.507 24.959-141.418 79.026-170.534 7.624-18.718-45.061 27.729-89.425 43.673-112.305 11.79-15.944 27.038-33.966 35.358-51.993 4.854-11.777 6.236-24.263 11.090-36.741 11.094-30.495 21.489-64.47 36.049-92.896 7.628-14.556 15.944-29.808 25.651-42.977 5.545-7.624 15.248-11.094 17.331-23.572-9.703-13.865-10.399-34.662-15.948-51.993-24.955-78.335-15.248-175.388 20.106-232.926 11.090-17.327 37.436-55.463 72.79-40.903 31.196 12.477 24.263 51.993 33.274 86.655 2.083 8.324 0.696 13.865 4.854 19.41 0.004-0.691 0-1.387 0-1.387 9.707-19.41 19.41-38.128 28.421-57.538 21.493-33.966 58.925-69.324 90.121-92.896 16.644-12.473 29.813-33.966 50.61-41.594 0 0.7 0 1.387 0 2.083-0.696 0-0.696 0-1.387 0-4.162 6.241-10.399 9.011-15.944 13.865-12.477 12.477-26.347 27.73-36.049 41.594-29.112 38.824-54.767 81.801-77.643 126.17-11.090 21.489-20.797 45.061-29.808 66.549-4.162 8.324-4.162 20.797-11.094 24.955-10.399-15.248-25.646-28.421-33.274-47.139-13.164-29.808-14.556-66.549-19.41-104.677-2.77-0.696-1.387 0-2.775-1.387-22.18 5.549-29.808 28.421-38.128 47.835-20.797 49.218-24.263 128.249-6.236 185.091 4.854 14.561 25.651 60.313 17.331 74.177-4.158 13.173-18.027 20.797-25.651 31.196-9.011 13.173-18.718 29.808-24.955 44.369-16.639 38.82-24.959 81.801-42.981 120.625-8.32 18.027-22.876 36.741-34.662 53.376-13.169 18.718-27.729 31.892-38.128 54.076-3.462 7.624-8.32 20.101-2.775 28.421 1.387 5.545 4.158 7.624 9.707 9.011 9.011 7.628 34.662-2.079 43.673-6.236 25.651-10.394 47.139-20.106 68.632-34.662 9.703-6.932 20.101-20.106 32.579-23.572 4.854 0 9.707 0 14.561 0 22.184-4.849 47.139-1.387 67.936-7.624 36.745-11.782 70.015-29.117 99.828-47.835 90.817-57.538 165.681-139.343 216.291-237.088 8.32-15.939 11.782-30.504 19.41-47.139 14.561-33.97 32.583-68.632 47.139-101.907 14.556-32.579 28.421-65.858 49.218-92.896 10.403-14.552 51.993-22.18 70.711-29.808 13.865-6.237 35.358-11.786 47.835-19.41 23.567-14.552 47.139-31.196 69.324-47.139 11.094-8.315 45.752-25.651 47.835-39.511v0zM234.114 776.846c-11.786 0-20.101-1.392-28.421-3.471 0 0.004 0-0.696 0-1.387 0.696 0 0.691 0 1.387 0 5.549-11.090 15.248-18.718 22.18-28.421 5.549-11.090 10.399-22.184 15.948-33.279 0.691 0.696 1.383 1.387 1.383 1.387 9.711 6.937 14.561 18.027 14.561 34.662-4.162 4.854-4.854 9.707-8.32 14.561-4.158 6.937-13.173 10.399-18.718 15.948v0z" />
<glyph unicode="&#xe928;" glyph-name="php" d="M512.008 697.61c-279.938 0-499.215-109.652-499.215-249.61s219.282-249.61 499.215-249.61c279.939 0 499.215 109.652 499.215 249.61s-219.282 249.61-499.215 249.61zM512.008 239.998c-119.604 0-229.982 22.284-312.515 57.862l16.754 66.935h72.964c55 0 102.74 37.277 116.109 90.658l3.638 14.639c6.23 24.858 0.752 50.723-15.013 70.914-15.778 20.209-39.508 31.785-65.141 31.785h-87.201c-9.546 0-17.853-6.495-20.17-15.763l-60.217-240.875c-66.355 36.181-106.812 82.303-106.812 131.835 0 112.757 209.572 208.002 457.616 208.002s457.616-95.252 457.616-208.002c0-112.757-209.572-208.002-457.616-208.002zM226.651 406.401l31.201 124.806h70.95c12.719 0 24.515-5.753 32.331-15.778 7.837-10.037 10.565-22.874 7.454-35.245l-3.638-14.639c-8.711-34.812-39.851-59.134-75.75-59.134h-62.567zM807.216 572.806h-87.201c-9.55 0-17.853-6.495-20.17-15.763l-41.502-165.941c-0.089-0.301-0.143-0.582-0.223-0.872l-20.677-82.797c-2.804-11.129 3.99-22.424 15.13-25.202 1.689-0.426 3.397-0.635 5.060-0.635 9.319 0 17.791 6.299 20.147 15.763l16.88 67.435h72.964c55.007 0 102.74 37.277 116.109 90.658l3.638 14.639c6.23 24.858 0.752 50.723-15.014 70.914-15.778 20.209-39.508 31.785-65.141 31.785zM847.015 480.175l-3.638-14.639c-8.711-34.812-39.851-59.135-75.75-59.135h-62.567l31.201 124.806h70.95c12.719 0 24.515-5.753 32.331-15.778 7.837-10.037 10.565-22.871 7.457-35.242zM624.134 547.414c-13.142 16.122-32.597 25.389-53.424 25.389h-65.937l6.892 37.885c2.064 11.294-5.425 22.122-16.737 24.172-11.232 2.072-22.144-5.425-24.172-16.73l-41.599-228.811c-2.072-11.294 5.425-22.122 16.737-24.172 1.253-0.245 2.499-0.345 3.74-0.345 9.872 0 18.628 7.026 20.428 17.082l27.151 149.324h73.503c8.243 0 15.947-3.662 21.145-10.059 5.207-6.397 7.235-14.686 5.55-22.768l-22.565-108.557c-2.336-11.232 4.888-22.237 16.149-24.593 1.422-0.292 2.851-0.426 4.255-0.426 9.647 0 18.303 6.745 20.35 16.574l22.565 108.557c4.224 20.381-0.894 41.34-14.015 57.489z" />
<glyph unicode="&#xe929;" glyph-name="postgresql" horiz-adv-x="987" d="M848.698 369.525c21.713 3.696 38.247 6.342 54.711 9.366 28.993 5.323 53.591-4.043 64.77-24.918 11.403-21.302 5.84-44.375-16.177-66.973-41.698-42.78-95.065-57.314-152.048-58.221-23.692-0.373-27.873-11.179-28.129-29.222-0.608-42.764-6.587-84.712-17.345-126.058-26.705-102.638-128.911-134.618-197.325-120.223-61.869 13.019-78.2 63.816-90.046 115.775-9.659 42.396-9.408 86.211-11.984 131.205-36.108-11.478-71.539-15.355-107.951-6.699-14.897 3.552-30.156 7.44-41.191 17.019-13.014 11.302-22.198 10.096-36.311 2.24-33.543-18.678-72.056-11.179-102.569 16.593-32.401 29.478-51.095 67.928-67.373 107.012-43.751 105.054-70.803 214.872-84.691 327.591-5.568 45.154 0.891 90.654 16.795 133.541 32.657 88.057 111.961 134.896 215.859 129.391 42.604-2.256 84.467-8.827 125.295-21.483 11.008-3.413 21.387-6.054 33.041 0.235 40.241 21.707 84.552 29.366 128.741 23.206 44.364-6.192 85.928 4.325 128.751 9.174 85.891 9.723 164.806-7.995 235.731-60.381 64.962-47.986 77.299-112.676 66.818-186.721-15.19-107.321-54.407-206.136-105.631-300.768-2.912-5.387-6.038-10.646-11.744-20.678zM476.151 248.145c2.283-51.042 4.229-98.921 6.598-146.779 3.216-64.909 32.033-108.825 79.635-122.036 71.667-19.878 149.301 25.313 165.675 97.838 11.718 51.895 17.025 104.857 22.091 157.787 1.349 14.097-0.048 26.742 24.46 24.284 57.154-5.739 111.465 5.387 154.96 47.378 9.36 9.030 20.849 18.907 13.467 34.145-7.814 16.155-22.945 14.219-37.223 11.739-24.438-4.24-48.706-10.582-73.784-7.803-28.060 3.104-29.11 5.803-15.025 29.313 61.938 103.422 106.431 213.325 121.962 333.623 6.342 49.132 1.547 94.937-38.231 131.983-68.12 63.442-149.013 80.734-238.691 72.333-34.897-3.264-67.81-20.667-104.34-12.608-38.871 8.576-79.934 10-114.81-7.958-37.5-19.313-71.107-15.494-107.487-3.317-28.822 9.648-59.223 12.731-89.134 13.216-56.007 0.912-109.929-8.246-151.184-51.57-50.861-53.399-58.301-120.106-51.847-188.476 7.67-81.208 28.918-159.947 54.141-237.459 18.342-56.365 36.908-112.9 75.832-159.307 37.409-44.604 75.4-44.087 113.508-0.155 21.526 24.822 43.234 49.479 65.218 73.891 4.16 4.624 6.96 11.792 17.078 7.419 14.043-6.075 29.297-9.344 44.172-13.867-14.15-32.743-43.831-34.876-70.995-41.991-16.993-4.448-38.012-8.251-37.745-30.556 0.251-20.603 18.779-28.417 36.369-33.489 47.543-13.702 92.547-9.318 135.328 22.422zM448.56 357.567c3.605 23.073 13.446 43.959 23.004 64.813 30.897 67.448 27.164 136.677 8.987 205.816-10.251 38.999-47.495 57.517-91.139 49.314-21.777-4.096-42.535-11.739-63.346-20.427 0.171 118.324 68.008 214.36 174.214 219.107 117.898 5.264 235.667-75.304 272.234-190.93-18.15-3.045-36.524-0.453-54.226-5.040-40.364-10.47-60.13-34.295-59.762-76.12 0.251-27.974 8.182-54.423 19.147-79.683 23.308-53.719 49.783-105.849 82.211-154.784 3.547-5.355 13.739-10.555-0.907-17.238-25.254-11.52-29.238-35.228-31.11-60.21-5.168-69.032-12.736-137.872-26.241-205.8-11.382-57.261-72.195-94.857-129.082-81.555-37.708 8.811-52.978 37.617-57.981 71.64-10.102 68.744-10.123 138.080-6.971 207.394 1.979 43.452-15.462 65.629-59.031 73.704zM368.44 848.983c-62.029-75.213-80.371-161.729-74.243-255.039 2.288-34.817-1.403-69.224-4.085-103.716-3.323-42.764 6.251-81.39 36.055-113.065 9.723-10.336 8.694-16.646-0.32-26.326-21.777-23.398-42.108-48.135-63.741-71.677-24.716-26.897-42.050-26.801-66.050 1.003-10.347 11.99-19.771 25.388-26.78 39.543-53.655 108.463-83.283 224.046-97.796 343.554-4.485 36.945-2.309 74.323 9.542 110.617 18.129 55.554 57.234 86.147 113.151 96.484 47.33 8.747 125.951-1.36 174.268-21.377zM641.074 880.242c55.399 10.416 108.927 8.214 161.275-10.176 9.158-3.216 18.23-7.291 26.476-12.368 88.339-54.434 92.318-77.699 79.614-168.539-14.31-102.302-54.631-195.927-106.201-284.848-1.573-2.709-4.822-4.437-9.446-6.054 18.993 48.983 11.19 98.212 5.318 147.477-3.296 27.692 1.984 55.117 6.715 82.083 5.302 30.22 1.003 57.885-11.584 85.299-30.156 65.672-75.267 117.77-137.882 154.358-4.539 2.651-8.902 5.606-13.259 8.555-0.501 0.331-0.411 1.531-1.024 4.213zM466.588 520.592c3.099-50.343-28.828-97.95-45.916-149.712-4.96-15.030-20.315-7.062-30.326-4.011-40.359 12.304-73.112 54.754-72.552 98.793 0.613 47.847 7.19 95.577 4.107 143.589-0.347 5.467 0.368 11.046 5.451 14.193 30.78 19.051 62.941 33.313 100.356 24.225 16.667-4.048 24.353-17.499 27.654-32.796 6.166-28.614 11.131-57.495 11.227-94.281zM413.866 636.532c-9.446-1.131-21.222-1.499-20.817-12.395 0.528-14.134 12.523-21.339 25.75-21.723 10.779-0.309 23.974 4.624 23.254 16.683-0.939 15.659-17.126 14.63-28.188 17.435zM764.705 415.265c-31.9 59.389-67.522 114.079-78.056 179.809-3.040 18.982-0.683 38.007 17.414 49.618 20.614 13.232 43.927 11.734 66.877 8.395 8.699-1.269 7.088-9.398 5.92-15.062-11.952-58.157-2.779-116.319-0.629-174.486 0.587-15.67-0.469-31.27-11.526-48.274zM752.827 633.668c-5.131 12.166-15.899 8.635-24.694 8.112-9.286-0.555-21.569-2.133-20.049-14.705 1.344-11.12 12.624-13.099 22.769-12.422 11.856 0.795 18.854 7.686 21.974 19.014zM340.77 255.564c5.44 10.011 13.702 8.56 20.065 9.718 32.087 5.803 57.917 20.667 76.387 48.098 7.195 10.688 16.337 21.009 30.198 9.248 12.608-10.699 13.696-23.75 4.299-37.761-24.289-36.209-77.139-48.364-130.949-29.302zM907.041 323.086c-45.132-34.625-89.811-41.698-137.392-36.199-12.608 1.456-13.803 11.094-11.446 22.187 3.344 15.729 16.406 26.438 27.873 20.833 37.463-18.289 75.384-12.907 120.964-6.822z" />
<glyph unicode="&#xe92a;" glyph-name="ruby" d="M859.968 956.416c129.472-22.4 166.080-110.848 163.392-203.52l0.64 1.28-58.24-763.2-756.48-51.072c-62.848 1.856-202.88 7.744-209.28 203.84l70.144 127.808 141.76-331.072 119.168 390.080-1.472-0.32 0.256 1.152 394.752-126.080-59.136 231.552-42.24 166.912 375.936 24.576-26.56 21.76-268.928 219.968 156.288 86.4zM0 145.536v0.064zM218.88 743.488c151.936 150.72 348.032 239.808 423.296 163.904 75.2-75.904-4.48-260.48-156.672-411.2-152.064-150.72-345.728-244.672-420.864-168.832-75.328 75.84 1.92 265.28 154.112 416z" />
<glyph unicode="&#xe92b;" glyph-name="shopify" d="M654.4-63.168l307.84 66.688s-111.040 751.488-112 756.48c-0.768 4.928-4.864 8.192-8.96 8.192-4.16 0-82.304 5.76-82.304 5.76s-54.4 54.4-60.992 60.16c-1.664 1.6-3.328 2.432-4.928 3.2l-38.72-900.48zM499.648 477.632s-34.56 18.112-75.712 18.112c-61.76 0-64.192-38.72-64.192-48.64 0-52.608 138.24-73.216 138.24-197.504 0-97.92-61.632-160.512-145.6-160.512-100.48 0-151.488 62.592-151.488 62.592l27.2 88.96s52.672-45.44 97.088-45.44c28.8 0 41.152 23.168 41.152 39.68 0 69.12-113.536 72.32-113.536 185.984 0 95.488 68.224 188.48 207.36 188.48 53.504 0 79.808-15.552 79.808-15.552l-40.32-116.096zM476.608 924.608c5.76 0 11.52-1.664 17.28-5.76-41.984-19.84-88.064-69.952-107.008-170.368-27.968-9.088-55.168-17.28-80.64-24.704 22.208 76.48 75.712 200.768 170.368 200.768zM529.28 798.72v-5.76c-32.128-9.92-67.52-20.608-102.080-31.36 19.84 75.776 56.832 112.768 88.96 126.72 8.192-21.312 13.12-50.176 13.12-89.6zM552.32 894.080c29.632-3.2 48.64-36.992 60.928-74.88-14.848-4.928-31.36-9.856-49.408-15.616v10.688c0 32.128-4.096 58.496-11.52 79.872zM679.936 839.040c-0.832 0-2.56-0.896-3.328-0.896-0.832 0-12.352-3.2-30.464-8.96-18.048 52.608-50.176 101.12-107.008 101.12h-4.928c-16.448 20.736-36.288 29.696-53.568 29.696-132.48 0-195.84-165.44-215.68-249.408-50.944-15.616-88-27.2-92.16-28.8-28.8-9.088-29.568-9.92-32.896-37.12-3.2-19.712-78.080-600-78.080-600l578.496-108.672 39.552 903.040z" />
<glyph unicode="&#xe92c;" glyph-name="sketch" d="M1023.47 617.771c0.11 0.457 0.274 0.896 0.347 1.353 0.293 2.048 0.238 4.115-0.165 6.181-0.091 0.494-0.311 0.933-0.457 1.408-0.293 1.006-0.494 2.012-0.951 2.963-0.311 0.64-0.786 1.134-1.152 1.719-0.201 0.311-0.219 0.658-0.439 0.969l-137.162 192.027c-1.939 2.707-4.554 4.444-7.388 5.724-1.811 4.188-5.048 7.699-9.382 9.565l-169.167 73.153c-2.304 0.988-4.755 1.5-7.26 1.5h-356.622c-2.506 0-4.956-0.512-7.26-1.5l-169.167-73.153c-4.316-1.865-7.553-5.377-9.364-9.547-2.816-1.28-5.45-3.036-7.388-5.743l-137.162-192.027c-0.219-0.293-0.238-0.658-0.439-0.969-0.366-0.585-0.841-1.079-1.134-1.719-0.457-0.951-0.658-1.975-0.951-2.963-0.128-0.475-0.347-0.933-0.439-1.408-0.421-2.048-0.457-4.133-0.165-6.181 0.073-0.475 0.238-0.896 0.347-1.353 0.366-1.609 0.933-3.146 1.719-4.627 0.293-0.549 0.585-1.061 0.933-1.591 0.256-0.384 0.402-0.823 0.695-1.207l493.785-621.803c0.146-0.183 0.384-0.256 0.53-0.421 1.573-1.829 3.402-3.328 5.523-4.407 0.329-0.165 0.677-0.274 1.024-0.421 2.268-0.988 4.7-1.664 7.26-1.664s4.993 0.677 7.26 1.664c0.347 0.146 0.695 0.256 1.024 0.421 2.103 1.079 3.95 2.579 5.523 4.407 0.146 0.165 0.384 0.238 0.53 0.421l493.785 621.803c0.293 0.366 0.439 0.823 0.713 1.207 0.347 0.512 0.64 1.042 0.933 1.591 0.75 1.481 1.317 3.018 1.683 4.627zM337.474 877.776h349.051l131.109-56.694-131.95-71.324h-347.368l-131.95 71.324 131.109 56.694zM287.803 420.568h448.393l-224.197-384.347-224.197 384.347zM288.535 457.144l64.009 256.037h319.46l74.324-256.037h-457.793zM51.226 636.479l116.917 163.681 148.391-80.213-62.18-248.74-202.141 164.705c-0.293 0.256-0.677 0.347-0.988 0.567zM237.858 437.466c0.201-2.707 0.896-5.395 2.323-7.827l127.415-218.454-271.271 341.608 141.533-115.326zM656.405 211.184l127.433 218.454c1.426 2.432 2.103 5.121 2.323 7.827l141.552 115.326-271.307-341.608zM778.296 478.267l-70.264 241.991 147.825 79.902 116.917-163.681c-0.311-0.219-0.695-0.311-1.006-0.567l-193.472-157.645z" />
<glyph unicode="&#xe92d;" glyph-name="zapier" d="M640 447.808c0-38.080-7.040-74.496-19.648-108.16-33.6-12.672-70.080-19.648-108.16-19.648h-0.384c-38.080 0-74.496 7.040-108.16 19.648-12.608 33.664-19.648 70.080-19.648 108.16v0.384c0 38.080 7.040 74.496 19.648 108.16 33.664 12.608 70.080 19.648 108.16 19.648h0.384c38.080 0 74.56-7.040 108.16-19.712 12.672-33.6 19.648-70.016 19.648-108.16v-0.32zM1016.96 533.312h-298.88l211.2 211.328c-16.64 23.36-35.072 45.248-55.296 65.408-20.16 20.224-42.048 38.72-65.28 55.296l-211.392-211.2v298.816c-27.712 4.48-56.064 7.040-85.12 7.040h-0.448c-28.992 0-57.408-2.56-85.12-7.040v-298.88l-211.2 211.2c-23.424-16.512-45.248-35.072-65.472-55.232-20.224-20.224-38.72-42.112-55.296-65.408l211.2-211.328h-298.816s-7.040-56.128-7.040-85.12v-0.384c0-28.992 2.56-57.472 7.040-85.12h298.88l-211.2-211.328c33.152-46.72 73.984-87.488 120.64-120.704l211.328 211.2v-298.88c27.648-4.48 56-7.040 84.928-7.040h0.768c28.928 0 57.28 2.56 84.928 7.040v298.88l211.328-211.2c23.36 16.512 45.184 35.008 65.28 55.232h0.128c20.224 20.224 38.72 42.048 55.296 65.408l-211.2 211.328h298.88c4.48 27.648 7.040 56 7.040 84.928v0.768c0 28.928-2.56 57.28-7.040 84.928z" />
</font>
</defs>
</svg>
